# xmcd
#
# Track frame offsets:
#	182
#	14025
#	32185
#	47780
#	63690
#	77192
#	88825
#	104425
#	118835
#	135450
#	153432
#	168662
#	183032
#	194540
#	210612
#	225920
#	237677
#
# Disc length: 3373 seconds
#
# Revision: 1
# Processed by: cddbd v1.5.1PL2 Copyright (c) Steve Scherf et al.
# Submitted via: EasyCDDAExtractor 6.5.7.1
#
DISCID=f30d2b11
DTITLE=Various Artist - Isto é Gauchada Tchê! vol 2
DYEAR=1900
DGENRE=Gaúchas
TTITLE0=Tchê Guri - O pulo do Sapo
TTITLE1=Grupo pampa e guitarra - Romance de Perereca
TTITLE2=Francisco Vargas - Já está solto o meu cuiúdo
TTITLE3=Ernesto Nunes - A pistola do meu tio
TTITLE4=Grupo Estampa - Soluço de bêbado
TTITLE5=Grupo Festança - AID's ti bugio
TTITLE6=Grupo Quero-Quero - Os bonitão
TTITLE7=Tio Nonato - Briga de burro
TTITLE8=Grupo Minuano - Gaúcho gago
TTITLE9=Grupo Candeeiro - Festança do Bugio
TTITLE10=Os Mirins - Ha Ha Haia Lagartixa Baia
TTITLE11=Grupo Chamamento - Dia de cambicho
TTITLE12=Os Farrapos - Chora Gaita
TTITLE13=Fagundaço - Trovas do Alegrete
TTITLE14=Garotos do Fandango - Maninha
TTITLE15=Iedo Silva - Trago, Cantiga e Mulher
TTITLE16=Os Mateadores - Bolicheiro de Vila
EXTD=
EXTT0=
EXTT1=
EXTT2=
EXTT3=
EXTT4=
EXTT5=
EXTT6=
EXTT7=
EXTT8=
EXTT9=
EXTT10=
EXTT11=
EXTT12=
EXTT13=
EXTT14=
EXTT15=
EXTT16=
PLAYORDER=
